<?xml version="1.0" encoding="UTF-8"?>
<svg width="50px" height="50px" viewBox="0 0 50 50" version="1.1" xmlns="http://www.w3.org/2000/svg" xmlns:xlink="http://www.w3.org/1999/xlink">
    <!-- Generator: Sketch 60 (88103) - https://sketch.com -->
    <title>汽车</title>
    <desc>Created with Sketch.</desc>
    <g id="页面-1" stroke="none" stroke-width="1" fill="none" fill-rule="evenodd">
        <g id="汽车" transform="translate(-0.500000, -0.500000)" fill="#2064F6">
            <circle id="椭圆形备份-10" fill-opacity="0.1" cx="25.5" cy="25.5" r="25"></circle>
            <path d="M15.8634557,27.3596776 C13.7713547,27.3628882 12.0802151,28.9585476 12.0802151,30.9298388 C12.0802151,32.90113 13.7754176,34.5 15.8675243,34.5 C17.9604467,34.5 19.6548336,32.90113 19.6548336,30.9298388 C19.6548336,28.9585476 17.9563723,27.3596776 15.864258,27.3596776 L15.8634557,27.3596776 Z M34.8790635,27.3596776 C32.7861412,27.3628882 31.0917542,28.9585476 31.0917542,30.9298388 C31.0917542,32.90113 32.7869568,34.5 34.8790635,34.5 C36.9711645,34.5 38.6663728,32.90113 38.6663728,30.9298388 C38.6663728,28.9585476 36.9711702,27.3596776 34.8790635,27.3596776 L34.8790635,27.3596776 Z M15.8121106,28.8718619 L15.8121105,28.8718619 C16.9373925,28.8718619 17.8496192,29.7702536 17.8496192,30.878482 C17.8496192,31.9867048 16.9373982,32.8851022 15.8121105,32.8851022 L15.8121105,32.8851022 C14.6886298,32.8851022 13.7778682,31.9881514 13.7778682,30.8816989 C13.7778682,30.8806278 13.7778682,30.8795568 13.7778682,30.8784857 C13.7778682,29.7684269 14.6874119,28.8718619 15.8121131,28.8718619 L15.8121106,28.8718619 Z M34.9981237,28.8718619 L34.9981236,28.8718619 C36.1234056,28.8718619 37.0356323,29.7702536 37.0356323,30.878482 C37.0356323,31.9867048 36.1234113,32.8851022 34.9981236,32.8851022 L34.9981236,32.8851022 C33.8746429,32.8851022 32.9638813,31.9881514 32.9638813,30.8816989 C32.9638813,30.8806278 32.9638813,30.8795568 32.9638813,30.8784857 C32.9638813,29.7684269 33.8734249,28.8718619 34.9981262,28.8718619 L34.9981237,28.8718619 Z M36.6957712,23.0221747 C32.3208399,13.3711645 18.6524723,12.7547327 14.4340211,22.6385095 C11.5114215,23.7188698 10.0705126,26.3708114 9.57824564,29.1784656 C9.54320054,29.1744523 9.51956558,29.1744523 9.51956558,29.1744523 L9.49919049,29.175255 C9.35656527,29.1832814 8.5,29.2763883 8.5,30.3928677 C8.5,31.4619916 8.55868007,32.1434376 9.40220602,32.2469789 C9.41035603,32.3930603 9.41361602,32.5343267 9.42991611,32.6763949 L11.8203074,32.6763949 L11.8203074,32.6763949 C11.52289,32.1076646 11.3675425,31.4772593 11.3671662,30.8375345 L11.3671662,30.829508 C11.3834663,30.6770053 11.3867263,30.5654382 11.3867263,30.4731334 C11.5904771,28.3276618 13.5040987,26.6501388 15.8398977,26.6501388 C18.3093504,26.6501388 20.3085413,28.5235136 20.3085413,30.8375407 C20.3085413,31.4957107 20.1488011,32.120971 19.8554002,32.6755997 L30.8872526,32.6755997 L30.8872529,32.6756003 C30.5899616,32.1071109 30.434618,31.4769952 30.4341118,30.8375413 C30.4341118,28.5275211 32.4341241,26.6501394 34.9027555,26.6501394 C37.3722083,26.6501394 39.3722205,28.5235142 39.3722205,30.8375413 C39.3722205,31.4957113 39.2116654,32.1209716 38.9190794,32.6756003 L43.4969459,32.6756003 C43.575186,28.389473 42.17257,23.025399 36.6957696,23.0221821 L36.6957712,23.0221747 Z M24.2034308,17.8651833 L24.2034308,23.7686351 L16.7975174,23.7686351 C16.9140625,21.3253883 19.941791,18.3443627 24.2034308,17.8659734 L24.2034308,17.8651833 Z M26.156988,17.8194325 C30.7275195,18.1332675 34.1260733,21.144793 34.1260733,23.6883831 C34.1260733,23.7156731 34.1179233,23.7381471 34.1179233,23.7654371 L26.156988,23.7654371 L26.156988,17.8194325 Z" id="形状" fill-rule="nonzero"></path>
        </g>
    </g>
</svg>