<?xml version="1.0" encoding="UTF-8"?>
<svg width="50px" height="50px" viewBox="0 0 50 50" version="1.1" xmlns="http://www.w3.org/2000/svg" xmlns:xlink="http://www.w3.org/1999/xlink">
    <!-- Generator: Sketch 60 (88103) - https://sketch.com -->
    <title>火箭</title>
    <desc>Created with Sketch.</desc>
    <g id="页面-1" stroke="none" stroke-width="1" fill="none" fill-rule="evenodd">
        <g id="火箭" fill="#5AC23F">
            <circle id="椭圆形" fill-opacity="0.1" cx="25" cy="25" r="25"></circle>
            <path d="M25.0009296,35.3166046 C25.8839515,35.3166046 26.5999342,36.0536932 26.5999342,36.9627451 C26.5999342,37.8717969 25.8839515,42 25.0009296,42 C24.1179077,42 23.401925,37.8717969 23.401925,36.9627451 C23.401925,36.0536932 24.1179077,35.3166046 25.0009296,35.3166046 Z M18.9732078,31.7865902 C18.6645672,32.0899521 18.3742918,32.4225543 18.1101237,32.7845821 C17.6002146,33.4832958 17.2162003,34.2377618 16.9510476,35.0204659 C16.789635,35.4997907 16.1496112,35.5320112 15.9196246,35.0834587 C14.5266936,32.3548551 14.6859963,28.9311581 16.6039578,26.3035603 C16.8859902,25.9198108 17.1919357,25.5686439 17.5203875,25.2496974 C17.4982895,24.9188582 17.4887379,24.5814856 17.4887379,24.2418119 C17.4887379,18.3740652 20.3452838,13.1956195 24.7058856,10.0944893 C24.8824197,9.96850358 25.1197912,9.96850358 25.2977318,10.0944893 C29.6562237,13.1956195 32.5127696,18.3740652 32.5127696,24.2418119 C32.5127696,24.5814251 32.503218,24.9187471 32.4843653,25.2535085 C32.8126966,25.5704216 33.1172971,25.9203206 33.3957915,26.3021122 C35.3155113,28.929348 35.4730556,32.3548551 34.0783663,35.0816486 C33.850138,35.5305631 33.2083559,35.4979806 33.0469433,35.0186557 C32.7817906,34.2359516 32.3977763,33.4814857 31.8878672,32.782772 C31.5558988,32.3284271 31.187006,31.92368 30.7899802,31.5627383 C29.5250887,33.5239105 27.3593645,34.7438766 25.0009296,34.7438766 C22.7173103,34.7438766 20.614369,33.6000837 19.3324803,31.7495916 L19.2080107,31.5645483 L18.9732078,31.7865902 Z M25,17 C23.4023195,17 22.0963391,18.2489203 22.0050927,19.8237272 L22,20 C22,21.6568539 23.3431461,23 25,23 C26.5976805,23 27.9036609,21.7510797 27.9949073,20.1762728 L28,20 C28,18.3431461 26.6568539,17 25,17 Z" id="形状结合" fill-rule="nonzero"></path>
        </g>
    </g>
</svg>